<mxfile host="app.diagrams.net" modified="2022-12-23T07:23:00.660Z" agent="5.0 (Windows NT 10.0; Win64; x64) AppleWebKit/537.36 (KHTML, like Gecko) Chrome/108.0.0.0 Safari/537.36 Edg/108.0.1462.54" version="20.7.4" etag="aoCgHBovAi_AEfNobVhn" type="github">
  <diagram id="bFEX_TlqHzrpEWg-63Os" name="Page-1">
    <mxGraphModel dx="1002" dy="573" grid="1" gridSize="10" guides="1" tooltips="1" connect="1" arrows="1" fold="1" page="1" pageScale="1" pageWidth="850" pageHeight="1100" math="0" shadow="0">
      <root>
        <mxCell id="0" />
        <mxCell id="1" parent="0" />
        <mxCell id="MMCc-c9MtbeJwgSq-hWA-3" value="" style="edgeStyle=orthogonalEdgeStyle;rounded=0;orthogonalLoop=1;jettySize=auto;html=1;" edge="1" parent="1" source="MMCc-c9MtbeJwgSq-hWA-1" target="MMCc-c9MtbeJwgSq-hWA-2">
          <mxGeometry relative="1" as="geometry" />
        </mxCell>
        <mxCell id="MMCc-c9MtbeJwgSq-hWA-1" value="START&lt;br&gt;calc_percent_change(original: int, new: int)" style="ellipse;whiteSpace=wrap;html=1;rounded=0;" vertex="1" parent="1">
          <mxGeometry x="139.07" width="190.93" height="80" as="geometry" />
        </mxCell>
        <mxCell id="MMCc-c9MtbeJwgSq-hWA-5" value="" style="edgeStyle=orthogonalEdgeStyle;rounded=0;orthogonalLoop=1;jettySize=auto;html=1;" edge="1" parent="1" source="MMCc-c9MtbeJwgSq-hWA-2" target="MMCc-c9MtbeJwgSq-hWA-4">
          <mxGeometry relative="1" as="geometry" />
        </mxCell>
        <mxCell id="MMCc-c9MtbeJwgSq-hWA-2" value="Initialise percent_change to 0.0" style="rounded=0;whiteSpace=wrap;html=1;" vertex="1" parent="1">
          <mxGeometry x="146.8" y="120" width="175.47" height="50" as="geometry" />
        </mxCell>
        <mxCell id="MMCc-c9MtbeJwgSq-hWA-7" value="" style="edgeStyle=orthogonalEdgeStyle;rounded=0;orthogonalLoop=1;jettySize=auto;html=1;" edge="1" parent="1" source="MMCc-c9MtbeJwgSq-hWA-4" target="MMCc-c9MtbeJwgSq-hWA-6">
          <mxGeometry relative="1" as="geometry" />
        </mxCell>
        <mxCell id="MMCc-c9MtbeJwgSq-hWA-4" value="percent_change = (new - original) / original * 100" style="rounded=0;whiteSpace=wrap;html=1;" vertex="1" parent="1">
          <mxGeometry x="101.8" y="210" width="265.47" height="60" as="geometry" />
        </mxCell>
        <mxCell id="MMCc-c9MtbeJwgSq-hWA-6" value="Return percent_change" style="ellipse;whiteSpace=wrap;html=1;rounded=0;" vertex="1" parent="1">
          <mxGeometry x="139.07" y="310" width="190.93" height="80" as="geometry" />
        </mxCell>
      </root>
    </mxGraphModel>
  </diagram>
</mxfile>
